<svg xmlns="http://www.w3.org/2000/svg" viewBox="0 0 600 465"><path fill="none" d="M0 465h600V0H0z"></path><path fill-rule="evenodd" clip-rule="evenodd" fill="#8C3D4D" d="M159.6 217c3.1 0 6.8 2.5 6.2 6.2 1.3 1.9 1.4 4.2.4 6.3l-1.2 1c.9 2.3-5.6 5.9-6.3 6.5l-8.8-12.4 9.7-7.6z"></path><path fill-rule="evenodd" clip-rule="evenodd" fill="#81B5E1" d="M356 147.2c-.2.5-3.6 7.7-2.9 10.3 2.4 7.4 9.5 7.6 13.8 5 2.2-2.1 11.1-14.3 11.1-14.3l-2.6-4-8.7-5.1-3.7-.1-7 8.2zM389.4 174c-.4.4-5.6 6.4-8.2 6.9-7.7.8-10.6-5.6-10-10.5 1-2.9 10.9-15.2 10.9-15.2l5.4-.2 6.9 4.4.7 8-5.7 6.6z"></path><path fill-rule="evenodd" clip-rule="evenodd" fill="#4C5254" d="M384.6 299.9c-.5-.3-6.9-5-9.6-4.9-7.7 1-9.2 8-7.5 12.8 1.6 2.6 9.1 11.2 9.1 11.2l15.3-12.3-7.3-6.8zM355.1 328.1c-.3-.5-5.1-6.8-5.1-9.5.7-7.7 7.1-9.7 11.9-8.1 2.6 1.5 13.1 12.6 13.1 12.6L360.7 336l-5.6-7.9z"></path><path fill-rule="evenodd" clip-rule="evenodd" fill="#00264B" d="M408.1 217c-.5.1-8.3.5-10.3 2.3-5.2 5.7-2.4 12.1 1.9 14.8 6.5 1.8 10.8 2.1 15.3 1.3l.9-16.7-7.8-1.7zM406.3 260.8c-.5-.1-8.3-1.3-10.1-3.4-4.7-6.2-1.3-12.3 3.2-14.6 7.5-1.4 11.9-.8 17.6.5l-1.2 19.7-9.5-2.2z"></path><path fill-rule="evenodd" clip-rule="evenodd" fill="#4C5254" d="M307.2 126.8c-2.2-5.9-17.7-.7-19 1.8-.1 3 2 13.3 6.1 17.9 4 3.1 13.7 1.1 14.6-4.2.3-5.9-.5-11.7-1.7-15.5M259 135.7c2.1 3.3 4.4 10.7 6 14.2 2.5 4.1 14.9 6.2 16.8-.4 1-3.4-1.5-17-1.5-17s-.6-5.4-9.4-2.9c-8.8 2.5-11.9 6.1-11.9 6.1"></path><path fill-rule="evenodd" clip-rule="evenodd" fill="#00264B" d="M212.8 266.3s7.6-4.2 8.6-6.5c2-4.1-1.6-11.8-6.7-10.8-6.1 1.1-14.2 3.8-19.7 4.9l5.1 16.1 12.7-3.7zM229.8 283.4c4.8-4.6.6-11.7-4.7-12.4-7 .3-12.9 5.3-18 8.3 7.2 19.1 7.2 15.8 22.7 4.1"></path><path fill-rule="evenodd" clip-rule="evenodd" fill="#81B5E1" d="M206 208.6s7.1 3.3 9.5 3.4c8.1.5 13.3-8.6 8.3-14.4l-7.4-5.7-7.4-3.9-12 16.8 9 3.8z"></path><path fill-rule="evenodd" clip-rule="evenodd" fill="#00264B" d="M277.1 334.6c.8-3.5 2.2-12.9-3.5-15.8-4.5-2-9.9-.7-12.1 2.7-1.9 3.9-5.2 11.8-6.6 15.9l20.6 4.6 1.6-7.4z"></path><path fill-rule="evenodd" clip-rule="evenodd" fill="#81B5E1" d="M216.6 188.7c6.7 4.8 17.7 7.5 20.4-4.1.1-5.2-5.6-9-8.4-12l-8-4.5-9.5 16 5.5 4.6z"></path><path fill-rule="evenodd" clip-rule="evenodd" fill="#00264B" d="M303.6 339.7c.6-3.5 1.4-12.6-4.3-15-4.9-1.8-9.8-.4-12.1 3.2-1.8 4.5-4.8 14.4-6.1 19.1l21.6 3 .9-10.3z"></path><path fill-rule="evenodd" clip-rule="evenodd" fill="#9FD6C5" d="M229.9 176.6c-.5-6.7-8.5-14.1-12.4-19L208 150l-14.6 24.5-.4-.5-19 29.4c11.6 2 24.5 6.2 36.7 4 4-1.6 6.2-8.5 6.2-9.1.2-1.7-2.2-6.4-3-7.2l-10.5-7.8.7.2 12.5 5.1c6.8 2 13.5-4.5 13.3-12z"></path><path fill-rule="evenodd" clip-rule="evenodd" fill="#A1126B" d="M169 256.3c4.9-.6 26.6-3.3 32-4.1 6.1-1 13.4 1.7 14 8.8-.9 6.1-5.5 6.9-10.1 10.5-7.1 4.9-19.9 11.4-27.4 15.5l-8.5-30.7zM192.8 312l13.7-10.9c6.9-5.6 22.9-13.2 15.8-24.8-3.1-3.6-10.7-1.9-13.6-.3-8.4 3-26.3 9.9-34.7 13.1l18.8 22.9z"></path><path fill-rule="evenodd" clip-rule="evenodd" fill="#81B5E1" d="M314 373c-1.2-6.1-1.4-26.1-7.2-32.7-2.5-6.2-9.4-6-14.5-7.3-11 .6-11.2 9.3-14.5 14.3.1-4.1.1-10.5-1.1-14.4-4.4-10.8-20.8-5.1-26.6 2-3.3 2.3-9.2 7.5-11.9 10.6l-6.3 10.8 38.7 9.5-1.7 4.5L314 373z"></path><path fill-rule="evenodd" clip-rule="evenodd" fill="#9FD6C5" d="M409 316.3c-4.4-2.3-18.8-13.6-24.9-15.3-7.7-.9-12.6 7.1-10.9 12.3 2.9 7.6 7.3 10.2 10.7 16.6-7-5.4-8.4-8.1-13.9-12.5-5.4-2.6-11.4-1.7-14 6.7.5 11.1 15.5 32.1 21 39.8l17-25.5s-.9-.7-2.2-1.8c5.4-5.8 17.2-20.3 17.2-20.3z"></path><path fill-rule="evenodd" clip-rule="evenodd" fill="#A1126B" d="M312.8 107c-.6-4.5-2.5-12-2.5-12l-31.9 8.1c.9-3.2-35.2 2.3-35.4 1.9 1.9 7.3 8.6 27 15.3 32.8 5.5 3.9 15.7 7.4 22 .5 2.9-3.8 1.6-12.1 1.4-18.1 2.6 6.1 2.4 11.8 8.2 15.7 5.5 2.3 12.5 1 17.5-2.2 6.2-5.6 5.4-18.8 5.4-26.7z"></path><g fill-rule="evenodd" clip-rule="evenodd" fill="#A1126B"><path d="M425.6 240c-3.9.5-14.6-.1-19.1 3.1-2.3 1.7-3.8 12.6-.4 15.3 2.7 3.9 18.1 7.7 21.8 9.7l-2.3-28.1zM420 237.7c3 .3 5.7 2.3 5.7 2.3l1.3-31c-5.6 3-15.2 6.4-20.7 10.4-6.8 11.8 2 17 13.7 18.3z"></path></g><path fill-rule="evenodd" clip-rule="evenodd" fill="#00264B" d="M395.2 134.5l3.8-3.6-27.7-25-9.2 25.4c-2.1 5.2-5.6 13-5.1 19.2 10.8 15.8 21.9-1.7 30.5-9-1.2 4-6.3 10.4-8.8 13.8-3.8 6.1-4.2 15.4 4.1 18.3 13.8 2.4 31.2-20.1 41.1-28l-28.7-11.1z"></path><path fill-rule="evenodd" clip-rule="evenodd" fill="#A1126B" d="M432.8 411c-4.7-28 9.6-28.6 25.8-12.5-5.3-19.8 15.4-23.7 30.5-20.9-8.9-5.3-26-22.2-17.5-32.9 9.6-8.1 37 4.8 41.4 6.6l-1.5 3.3c-59.2-26.4-39.1 13-11.3 25.3.9.4 1.2 1.4.9 2.3-1.4 3.8-26.8-7.9-37.1 3.1-6.9 7.7 2.4 17.8-.3 21.6-.8.5-1.7.3-2.3-.3-13.2-14.2-30.2-26.9-25 4l-3.6.4z"></path><path fill-rule="evenodd" clip-rule="evenodd" fill="#FFCA0B" d="M158.5 429l-1.7-3.2c18.8-8.7 41.4-31.8 4.4-32.9-29.4 43.1-60.2 7-2.2-3.4 6.2-11.7-7.9-14.3-15.8-13.2-29.8 37.4-51.5 2.8-1.9-3.5 13.1-21.9-21-18.6-33-6.4l-2.3-2.9c14.4-14.2 51-16 39.7 9 8.6-1.4 22.7 4.7 17.4 16.6 43.8 4.6 11.1 33.2-4.6 39.9zm-2-35.4c-9 1.2-24.3 9.2-26.3 12.5-2.6 7 9.1 5.2 18.9-4.4 3.2-3.1 5.6-5.8 7.4-8.1zM138 376.9c-12.4 2.2-23.6 6.7-21.9 13.1 1.7 2.4 16.8-6.4 21.9-13.1zM491.4 148c-18.2-3.3 1.6-25.3 10.8-33.2-26.3 11-38.5-5.9-18.7-26.2-30.8 14.3-32.2-10.4-16-22.6l2.4 2.7c-.7.5-14.3 13-7.5 19 2.1 2.1 8.8 4 29.4-7.4 2-2 5.1.4 3 2.5-31.6 26.2-17.3 42.3 17.4 23.5 1.9-1.1 3.7 1.8 2 3.1-7.1 5.4-25.8 21.5-26.4 30.5-.4 9.6 13.9 1.4 19.8-1.8l1.8 3.1c-2.9 1.8-9.8 6.4-18 6.8"></path><path fill-rule="evenodd" clip-rule="evenodd" fill="#9FD6C5" d="M184.7 84L167 42.5l3.3-1.5L188 82.5zM176.4 90L126 38.6l2.6-2.6L179 87.4zM167 95c-2.4-1.7-23.3-12.5-37-19.7l1.7-3.3c5.4 2.9 33.6 17.4 37.3 19.9l-2 3.1zM165 102l-54-.5V98l54 .5z"></path><path fill-rule="evenodd" clip-rule="evenodd" fill="#F58263" d="M210 128.9c1 1.1 7.1 4.7 9.3 2.2 2.3 0 4.4-1.2 5.6-3.2l.2-1.5c2.5-.5 1.9-8 2-8.9l-15.6-.5-1.5 11.9z"></path><path fill-rule="evenodd" clip-rule="evenodd" fill="#00264B" d="M219 152c-6.2-6.6-15.9-12-27.9-14.3 0 0-.2-.1-.4-.1 3.7-4.9 13.4-6.2 18.9-5 0 0 3.3-12.1 2.1-17.8-26.9-14.9-58.7 15.8-71.1 34.4-3.8 5-14.7 31.6-11.3 44.1.5 4.9 4 17.5 4 17.5 1.4 2.9 9.3 14.4 14.6 15.3 5.4-2.2 13-10.9 13-10.9-4-5.5-8.2-13.7-5.1-21.2 3.3 2.9 9.2 7.7 11.4 9.5 9.2 6.1 21 6.9 23.2 4.1 14.3-14 34.8-37.3 28.6-55.6z"></path><path fill-rule="evenodd" clip-rule="evenodd" fill="#F58263" d="M355 99.2c-.3 1.9-3.4 7.1-6.8 6-2 1.1-4.5.9-6.5-.4l-.9-1.3c-2.5.7-5.3-6.4-5.9-7.2l13.9-7.3 6.2 10.2z"></path><path fill-rule="evenodd" clip-rule="evenodd" fill="#9FD6C5" d="M345.9 79.6c-6.6-16.3-21.7-21-39.5-24.5-21.2-7.6-44.9-.2-65.1 7.8-13.2 9.5-20.6 14.3-27.7 25.2-6.1 10.2-7 16.9-4 28.4 1.7 4.2 18.6 2 18.6 2 .1-1.1-.1-15.6 4.7-17.5 0 .2.1.3.1.5 1.9 1.6 4.7 4.3 5.5 5.5 3.1 4.7 9.2 8.2 9.8 8.5 7.9 4.6 23.5 5.6 31.1 3.4 20.2-3.7 38.9-17.1 35-36.5 11.8 1.1 13 7.5 17.4 14.6 0 0 16.4-5.5 16.1-10.1-.1-2.4-1.1-4.5-2-7.3z"></path><path fill-rule="evenodd" clip-rule="evenodd" fill="#8C3D4D" d="M433.5 158c-1.1.8-6.1 6.6-4.1 9.1-.5 2.2.2 4.6 1.9 6.3l1.5.5c-.1 2.6 7.4 3.7 8.3 4.1l3.9-15.4-11.5-4.6z"></path><path fill-rule="evenodd" clip-rule="evenodd" fill="#A1126B" d="M453.7 130.9c-3.4-11.4-4.4-14.2-5.8-16.5.4-4.4-4.9-11.2-9.5-15.6-5-5.6-8-6-8-6s-12.3-8.1-23-14.5c-15.4-6.7-14.3-5-31.9-6.3-12.7.4-24 4.5-30.4 14.5 1.5 5.7 9.8 15.2 9.8 15.2 4.5-3.6 13.7-6.8 19.3-3.9-11.2 17.8 4.3 31.8 15.1 40.1 3.8 2.8 8.4 8.1 13.8 9.8 13 2.8 20.1 1.4 27.2-8 2.9 4.1 1.3 13.9.1 18.3 0 0 10.7 5.7 16.5 5.8 8.1-8.4 9.4-20.5 6.8-32.9z"></path><path fill-rule="evenodd" clip-rule="evenodd" fill="#F58263" d="M437.2 310c-.8-.6-5.6-6.8-3.9-8.8-.7-2.2-.1-4.5 1.5-6.2l1.4-.6c-.2-2.5 7.2-4 8.1-4.4l4.7 14.8-11.8 5.2z"></path><path fill-rule="evenodd" clip-rule="evenodd" fill="#FFCA0B" d="M460 325.1c-.6-4.4-2.3-17.7-8.4-21.1-5.9.5-16.6 6.9-16.6 6.9 2 4.3 1.8 13.3.2 18.8-12.3-7.6-14.8-11.3-26-16.5-2-1-10.5 2.1-10.7 2.2-15.6 4.6-27.7 23.2-31.5 38 .4 6.3 6.7 14.3 9.6 20.4-4.9 2.3-14.3-.6-18.2-3.8 0 0-8 9.6-9.4 15.3 14 22.3 56.2 12.6 70.3 2 15.1-14.4 43.4-34.8 40.7-62.2z"></path><path fill-rule="evenodd" clip-rule="evenodd" fill="#A1126B" d="M431 352.2c-2.8-8.2-14.6-15.4-21.2-8.4-6.7 1.9-9.7 8-11.7 13.9-5.5 8.7-1.7 14.2-1.7 14.2l5.1-4c.1.1.1.2.2.3-1.1 3-.8 6.4 1.4 8.7l4.5-3.9c12.8 7.3 29-6.9 23.4-20.8z"></path><path fill-rule="evenodd" clip-rule="evenodd" fill="#F58263" d="M199 337.8c4.3-3.4 11.4-4.4 15 1.2 3 2 1.7 7.6 1.2 9.8l-14.7 3.1-1.5-14.1z"></path><path fill-rule="evenodd" clip-rule="evenodd" fill="#81B5E1" d="M197.4 334.1c-5.3 1.3-15.1.2-18.7-4.5 14.9-13.9 21-16.6 15.4-37.1-3.7-16.8-10.9-28.8-23.8-36.1-3.5-.1-17.4.1-22.7 1.3-.3-12.3 5.6-14 12.5-19.4 0 0-6.9-14.2-11.4-13.3-6.6 1.1-14.5 5.7-17.8 9.9-5.6 7.3-8.5 21.4-10.2 30.1-3.1 20.5 16.1 58.3 29.2 75 8 10.3 34.7 22.8 50.1 11.9.9-5.7-2.6-17.8-2.6-17.8z"></path><path fill-rule="evenodd" clip-rule="evenodd" fill="#8C3D4D" d="M169.2 294.2c1.9-4.6.3-4.8-3.7-6.5-13.4-15.1-39.9 2.7-27.4 20.2 9.9 14.7 36.6 4.3 31.1-13.7"></path><path fill-rule="evenodd" clip-rule="evenodd" fill="#00264B" d="M164.2 301.5c.8-2.6-.7-5.5-3.2-6.6-.2-.1-.6-.6-.5-1.1 1.3-4.9-2.6-5.1-4.1-8 .4-5.7-8.4-8-11.3-3.2-1.1 1.1-2.6.1-3.9.6-4.4 1.1-4 3.9-5.2 6.8-2.9 1-4.6 3.9-3.9 6.7.1 1.3 1.8 2.2 1.4 3.4-2.9 3.2-.6 8.5 3.6 9.1.3.1.9.7.9 1-.2 4.6 5.5 7.4 9.4 5 .3-.2 1 0 1.2.2 1.4 1.8 3.9 2.8 6.5 2.2 2.2-.5 3.8-2 4.4-3.9.1-.3.8-.7 1.1-.6 6.5 1.5 10.3-7.7 4.1-10.6-.2.1-.6-.5-.5-1"></path><path fill-rule="evenodd" clip-rule="evenodd" fill="#F58263" d="M357 371.8c-.5-1.3-5-6.4-7.6-5.1-2.1-1-4.6-.8-6.6.6l-.8 1.3c-2.4-.6-5.5 6.6-6 7.4l14.7 7 6.3-11.2z"></path><path fill-rule="evenodd" clip-rule="evenodd" fill="#00264B" d="M334.9 375c-6.8 14-8.1 13.8-24.8 16.7 4.5-11 5.3-16.6 4.5-26.5 0 0-.8-1.9-2.3-2.9-20.5-10-60-19.7-78.8-9.8-4.8 8-6.2 10.3-6.2 17.5-11.6-7.4-10-11.2-10.9-21.9-16.3 1-24.3 2.5-18.6 22.7 6.9 17.1 33.9 39 52.4 44.2 26.1 7.3 63.5 7.4 85.4-6.2 9.8-6.7 13.4-12.4 15.5-24 .1-4.7-16.2-9.8-16.2-9.8z"></path><path fill-rule="evenodd" clip-rule="evenodd" fill="#81B5E1" d="M493.1 226.7s-1.2-16-3.7-25.5c.2-.1.4-.2.7-.3-6.8-18.2-11.3-25.9-23.7-35.7-4.3-2.6-12.9-5.8-19.4-3.1-3.9.7-6.9 16.8-6.9 16.7 12.5 3.2 18.4 5 19.4 21.5-4.7-.4-6-1.7-14.9-.7-4.9 1.4-14.5 4-19.9 8.4-1.9 2.1-5.8 14.7-5.5 26.8.2 12.1 4 32.1 5.4 33.4 12.7 11.7 24.1 10.2 36.2 8.2-1.4 9.3-11.9 11-16.6 12.9 0 0 2.5 17.1 7 17.6 2.4.3 4.6-.3 7.6-.7 7.6-1.5 7.3-2.5 11.9-4.8 12.9-12.2 17.3-19.9 23.4-42.6-.1 0-.1 0-.2-.1.5-13.1-.4-30.4-.8-32z"></path><path fill-rule="evenodd" clip-rule="evenodd" fill="#81B5E1" d="M469.2 189.2s-3.5 2-4 3.1-5 12.9-5.6 13.6c-.6.7-7.9 8.5-7.9 8.5l-9.3 10.6s-3.5 12.5-3.5 13.2c0 .7 1.2 8.1 1.4 8.8 4.6 5.9 13.2 12.5 18.7 17.4.3.7 6.1 11.9 6.1 11.9l8.8 7.3s4 .9 5.5-.3c15.7-13.2 14.8-37.4 15.4-57-.3-4.2-5.4-21.7-6.1-23.6-.6-1.9-8-12-8.3-12.7-.3-.7-8.1-2.1-8.1-2.1l-3.1 1.3z"></path><path fill-rule="evenodd" clip-rule="evenodd" fill="#00264B" d="M490.4 225.7c-6.1-12.3-4.8-8.5-17.4-11.7-6.6 1.2-8.4 1.7-12.9 7.4-.4.9-3 5.7-2.9 6.7 0 1-1.4 9-1.4 9s-4.5-.7-5.5-.1c-.2.1-.4 2.5-.8 2.7-1.5 4.7.9 7.6 4.8 9.6 1.7.6 7.1 5.7 8.4 6.5.6.2 6.4 3.9 7.2 4.1 1.5.6 9.1-.6 12.1-2.8 5.1-5.1 8.7-7.6 10-12.3.7-4.6 1.1-12.7 1.1-12.7l-2.7-6.4z"></path><path fill-rule="evenodd" clip-rule="evenodd" fill="#8C3D4D" d="M468.3 224.5c-.9 2 1.3 21.1 1.7 22.5-3.2 0-6.4-5.9-7-8.9-.4-1.3-1.9-1-2-3.3-.1-1.8 1.5-2.1 1.7-3.4.2-3.3 3.8-7.3 5.5-8.4"></path><path fill-rule="evenodd" clip-rule="evenodd" fill="#FEFEFE" d="M413.9 341s-5.4.5-9.3 3.5c.2-.2.3-.4.5-.5-2 1.1-4.6-.5-5 2-.1.9.9 1.6.3 3 .2-.1.6-.4 1.1-.9-1.9 2.9-2.3 5.3-2.4 8.9-.2-.4 18.6-7.2 17-6.4l-2.2-9.6z"></path><path fill-rule="evenodd" clip-rule="evenodd" fill="#FFCA0B" d="M431.3 76c-13.3-7.4-29.9 6.2-25.6 20.5-13.3 2.9-15.8 22.8-3.2 28.8 10.5 5.8 24.1-3.6 22.5-15.4 17-1.2 22.1-26.4 6.3-33.9z"></path><path fill-rule="evenodd" clip-rule="evenodd" fill="#FEFEFE" d="M413 126.1c-1.3-1.5-1.9-4.4-.1-9 .1-.2-8.6 3.8-18.7-7.1-.9 5 1.4 10.9 4.1 15.2 1.6 1.1 2.8.1 4.4.6 3.3 1.1 5.9 1.9 10.3.3"></path><path fill-rule="evenodd" clip-rule="evenodd" fill="#00264B" d="M288.5 71.8c6.1 19.2-29.4 27.5-33 8-5.2-21.4 27.7-29.3 33-8"></path><path fill-rule="evenodd" clip-rule="evenodd" fill="#F58263" d="M287 82.8c-17.1-3.1-10.8-8-27 5.6 1.6 2.9 6.6 5.9 12 5.2 1.3-.2 2.6 2 4.8 1.3 1.2-.3 2.1-3 2.8-3.5 3.2-2.2 5.8-3.7 7.4-8.6"></path><path fill-rule="evenodd" clip-rule="evenodd" fill="#00264B" d="M284 75l-8.8 13.3-2.1-6.8-5.3 8.5-2.8-9.4c3.6-1.8 15-4.6 19-5.6z"></path><path fill-rule="evenodd" clip-rule="evenodd" fill="#FEFEFE" d="M180.1 168.1c6.9-23-32.9-24.1-27.5-.8 2.8 9.3 16.4 13.5 23.9 6.3 3.7-1.5 4.4-.6 3.6-5.5z"></path><path fill-rule="evenodd" clip-rule="evenodd" fill="#D14226" d="M170.7 166.4c10.6-1.8 12.7-17.1 2.3-21.2-5.2-2.2-4.6-8.6-10.1-10.8-5.4-2.8-12.3-1.3-15.9 3.4-2.9 4.5-9.2 4.5-12.3 8.9-4.2 4.3 0 9.6-2.6 13.8-3.8 5.2-2.4 12.2 3.2 15.7 5.3 4.4 11.4-.7 16.7 1.8 8.3 5.7 21.1-1.7 18.7-11.6"></path><path fill-rule="evenodd" clip-rule="evenodd" fill="#4C5254" d="M281.4 377.2c-.1-8.7-12.2-12.5-17.3-5.6-2.4 1.7-5.5-1.6-8.5-.2-4.1 1-7.1 4.6-7.4 8.7-.3 1.7 1 3.7-.6 4.9-2.5 2-3.9 5.2-3.5 8.6 1.1 8.5 7.6 5.2 7.8 12.4 1.9 7.3 12.4 9.2 16.8 3.3 1.8-1.7 4.3.7 6.6 0 5.3-.6 9.2-5.5 8.5-10.7-.1-.7.3-1.4.9-1.7 7.8-3.5 6.6-16-1.7-18-.9-.1-1.5-.8-1.6-1.7"></path></svg>